<svg xmlns="http://www.w3.org/2000/svg" viewBox="0 0 504.334 392.513">
  <defs>
    <style>
      .cls-1 {
        fill: #f5a623;
      }

      .cls-2 {
        fill: #fff;
      }
    </style>
  </defs>
  <g id="australia" transform="translate(0.009 -59.587)">
    <path id="Tracé_3" data-name="Tracé 3" class="cls-1" d="M486.4,212.5h0a61.2,61.2,0,0,0-86.4,0h0a61.2,61.2,0,0,0,0,86.4l43.2,43.2,43.2-43.2A61.019,61.019,0,0,0,486.4,212.5Z"/>
    <circle id="Ellipse_1" data-name="Ellipse 1" class="cls-2" cx="25.7" cy="25.7" r="25.7" transform="translate(417.6 229.9)"/>
    <path id="Tracé_4" data-name="Tracé 4" class="cls-2" d="M128.5,145.7a7.658,7.658,0,0,0,10.8-1.2l21-26.2a14.961,14.961,0,0,1,18.6-3.9,31.306,31.306,0,0,0,34.6-3.7L250.6,80A10.343,10.343,0,0,1,261,78.3L281.6,86a10.107,10.107,0,0,1,6,5.8,10.258,10.258,0,0,1-.2,8.4,25.758,25.758,0,0,0,8.9,32.2l26.9,18.2A30.668,30.668,0,0,0,369.5,135l12.8-37.8,3.4,17.3a18.665,18.665,0,0,0,21.4,14.7,3.088,3.088,0,0,1,3.6,2.4l8,36.8a7.679,7.679,0,0,0,7.5,6,8.753,8.753,0,0,0,1.6-.2,7.718,7.718,0,0,0,5.9-9.1l-8-36.8A18.527,18.527,0,0,0,404.4,114a3.234,3.234,0,0,1-3.7-2.5l-8.9-45.7a7.671,7.671,0,0,0-14.8-1L355,130a15.362,15.362,0,0,1-23.2,7.7l-26.8-18a10.386,10.386,0,0,1-3.6-13.1,25.482,25.482,0,0,0,.4-20.6A25.888,25.888,0,0,0,287,71.6l-20.6-7.7a26.084,26.084,0,0,0-25.6,4.3L203.7,99a16.144,16.144,0,0,1-17.7,1.9,30.447,30.447,0,0,0-37.6,7.9l-21,26.2A7.517,7.517,0,0,0,128.5,145.7Z"/>
    <path id="Tracé_5" data-name="Tracé 5" class="cls-2" d="M418.7,432.6a54.583,54.583,0,0,1-22.9,4.3l-28.9-.7a41.2,41.2,0,0,1-37.4-26L318,381.4a17.322,17.322,0,0,0-28.9-5.2l-6.8,7.5a1.2,1.2,0,0,1-1.2.4,1.137,1.137,0,0,1-1-.7l-10.2-17.8a51.544,51.544,0,0,0-61-23.2L151,361.9a187.491,187.491,0,0,0-19.2,7.7L81.3,392.9a35.825,35.825,0,0,1-28.7.6,8.98,8.98,0,0,1-5.1-5.5,9.15,9.15,0,0,1,.8-7.4l1.5-2.5A34.191,34.191,0,0,0,52,347.3L18.1,266.7a34.3,34.3,0,0,1,17.4-44.6l64.2-29.4a7.413,7.413,0,0,0,2.8-2.2l17.4-21.7a7.684,7.684,0,0,0-12-9.6L91.7,179.4,29.2,208A49.715,49.715,0,0,0,3.9,272.6l33.9,80.6a18.686,18.686,0,0,1-1.2,16.9l-1.5,2.5a24.093,24.093,0,0,0-2.2,20.1,24.343,24.343,0,0,0,13.8,14.8,51.717,51.717,0,0,0,41-.8l50.5-23.3c5.8-2.7,11.7-5,17.7-7.1l57.8-19.5A35.928,35.928,0,0,1,256.4,373l10.2,17.8a16.807,16.807,0,0,0,26.9,3l6.8-7.5a1.76,1.76,0,0,1,1.8-.6,1.938,1.938,0,0,1,1.5,1.2l11.5,28.8a56.78,56.78,0,0,0,51.3,35.7l28.9.7h1.8a70.431,70.431,0,0,0,27.5-5.6,7.551,7.551,0,1,0-5.9-13.9Z"/>
    <path id="Tracé_6" data-name="Tracé 6" class="cls-2" d="M496.4,321.4a7.764,7.764,0,0,0-8.9,6.3,89.088,89.088,0,0,1-11.8,31.5l-31.4,51.3a51.052,51.052,0,0,1-5.1,7.1,7.544,7.544,0,0,0,.9,10.8,7.681,7.681,0,0,0,5,1.8,7.439,7.439,0,0,0,5.8-2.7,83.138,83.138,0,0,0,6.6-9l31.4-51.3a104.642,104.642,0,0,0,13.9-36.9A7.913,7.913,0,0,0,496.4,321.4Z"/>
    <path id="Tracé_7" data-name="Tracé 7" d="M443.3,289a33.353,33.353,0,0,0,33.3-33.3,32.86,32.86,0,0,0-6.5-19.8,7.65,7.65,0,0,0-12.3,9.1,17.808,17.808,0,0,1,3.5,10.7,18,18,0,1,1-18-18,7.7,7.7,0,1,0,0-15.4,33.35,33.35,0,0,0,0,66.7Z"/>
  </g>
</svg>
