<svg xmlns="http://www.w3.org/2000/svg" viewBox="0 0 179.179 54.1">
  <defs>
    <style>
      .cls-1 {
        fill: #fff;
      }
    </style>
  </defs>
  <g id="logo" transform="translate(1985.1 -272.1)">
    <g id="Groupe_5" data-name="Groupe 5" transform="translate(-1985.1 272.1)">
      <path id="Tracé_34" data-name="Tracé 34" class="cls-1" d="M-1971.844,302.514l-4.3,4.26v7.842h-8.957V272.1h8.957v24.044l13.057-12.381h10.669l-12.818,13.057,13.973,17.755h-10.828Z" transform="translate(1985.1 -272.1)"/>
      <path id="Tracé_35" data-name="Tracé 35" class="cls-1" d="M-1866.775,318.692H-1890.1a7.278,7.278,0,0,0,2.986,4.538,9.78,9.78,0,0,0,5.852,1.672,11.8,11.8,0,0,0,4.26-.717,10.419,10.419,0,0,0,3.463-2.269l4.737,5.135c-2.906,3.344-7.126,4.976-12.7,4.976a20.216,20.216,0,0,1-9.236-2.03,14.655,14.655,0,0,1-6.17-5.653,15.685,15.685,0,0,1-2.189-8.2,15.719,15.719,0,0,1,2.15-8.161,14.908,14.908,0,0,1,5.892-5.653,17.362,17.362,0,0,1,8.4-2.03,17.091,17.091,0,0,1,8.2,1.951,14.15,14.15,0,0,1,5.772,5.573,16.7,16.7,0,0,1,2.11,8.439C-1866.616,316.383-1866.656,317.179-1866.775,318.692Zm-20.939-9.912a7.117,7.117,0,0,0-2.508,4.7h15.167a7.473,7.473,0,0,0-2.508-4.658,7.655,7.655,0,0,0-5.056-1.752A7.734,7.734,0,0,0-1887.715,308.779Z" transform="translate(1933.336 -289.074)"/>
      <path id="Tracé_36" data-name="Tracé 36" class="cls-1" d="M-1784.323,303.624q3.822,3.4,3.822,10.271v17.6h-8.36v-3.822c-1.672,2.866-4.817,4.3-9.395,4.3a14.839,14.839,0,0,1-6.17-1.194,8.969,8.969,0,0,1-3.981-3.344,8.646,8.646,0,0,1-1.393-4.817,8.04,8.04,0,0,1,3.224-6.767c2.15-1.632,5.494-2.468,9.992-2.468h7.086a5.648,5.648,0,0,0-1.791-4.5,7.9,7.9,0,0,0-5.334-1.592,15.66,15.66,0,0,0-4.857.756,11.676,11.676,0,0,0-4.021,2.11l-3.224-6.25a18.811,18.811,0,0,1,6.051-2.747,27.632,27.632,0,0,1,7.245-.955C-1790.573,300.24-1786.91,301.354-1784.323,303.624Zm-7.643,21.258a5.725,5.725,0,0,0,2.508-3.105v-3.145h-6.131c-3.662,0-5.494,1.194-5.494,3.623a3.1,3.1,0,0,0,1.354,2.707,6.094,6.094,0,0,0,3.7,1A7.639,7.639,0,0,0-1791.966,324.881Z" transform="translate(1879.585 -289.014)"/>
      <path id="Tracé_37" data-name="Tracé 37" class="cls-1" d="M-1686.784,300.678v25.677c0,5.653-1.473,9.873-4.419,12.619s-7.245,4.14-12.9,4.14a32.555,32.555,0,0,1-8.479-1.075,18.762,18.762,0,0,1-6.648-3.145l3.543-6.409a14.8,14.8,0,0,0,4.936,2.548,19.5,19.5,0,0,0,5.971.955c3.105,0,5.374-.717,6.847-2.11s2.19-3.5,2.19-6.33v-1.314c-2.349,2.548-5.573,3.822-9.753,3.822a16.445,16.445,0,0,1-7.763-1.871,13.891,13.891,0,0,1-5.573-5.255,14.563,14.563,0,0,1-2.07-7.8,14.563,14.563,0,0,1,2.07-7.8,14.165,14.165,0,0,1,5.573-5.255,16.445,16.445,0,0,1,7.763-1.871c4.458,0,7.882,1.473,10.191,4.419v-3.941Zm-11.067,19.9a7.089,7.089,0,0,0,2.269-5.454,7.031,7.031,0,0,0-2.269-5.454,8.279,8.279,0,0,0-5.812-2.11,8.448,8.448,0,0,0-5.852,2.11,7.121,7.121,0,0,0-2.309,5.454,6.93,6.93,0,0,0,2.309,5.454,8.311,8.311,0,0,0,5.852,2.11A8.279,8.279,0,0,0-1697.851,320.582Z" transform="translate(1826.075 -289.014)"/>
      <path id="Tracé_38" data-name="Tracé 38" class="cls-1" d="M-1611.86,329.937a15.069,15.069,0,0,1-6.051-5.653,15.685,15.685,0,0,1-2.19-8.2,15.42,15.42,0,0,1,2.19-8.2,15.086,15.086,0,0,1,6.051-5.653,18.522,18.522,0,0,1,8.718-2.03,18.41,18.41,0,0,1,8.718,2.03,14.964,14.964,0,0,1,6.011,5.653,15.322,15.322,0,0,1,2.189,8.2,15.42,15.42,0,0,1-2.189,8.2,15.239,15.239,0,0,1-6.011,5.653,18.3,18.3,0,0,1-8.718,2.03A18.522,18.522,0,0,1-1611.86,329.937Zm14.371-7.6a8.64,8.64,0,0,0,2.19-6.21,8.816,8.816,0,0,0-2.19-6.21,7.414,7.414,0,0,0-5.653-2.309,7.414,7.414,0,0,0-5.653,2.309,8.662,8.662,0,0,0-2.229,6.21,8.662,8.662,0,0,0,2.229,6.21,7.473,7.473,0,0,0,5.653,2.309A7.558,7.558,0,0,0-1597.489,322.334Z" transform="translate(1765.402 -289.014)"/>
    </g>
  </g>
</svg>
