<svg id="Capa_1" data-name="Capa 1" xmlns="http://www.w3.org/2000/svg" viewBox="0 0 40 58"><defs><style>.cls-1{fill:#fff;}</style></defs><title>Locked</title><path class="cls-1" d="M29,30a4,4,0,0,0-4,4v6a4,4,0,0,0,8,0V34A4,4,0,0,0,29,30Zm2,10a2,2,0,0,1-4,0V34a2,2,0,0,1,4,0Z" transform="translate(-9 0)"/><path class="cls-1" d="M40,21.31V10.22C40,4.58,35.06,0,29,0S18,4.58,18,10.22V21.31a20,20,0,1,0,22,0ZM20,20.16V10.22C20,5.69,24,2,29,2s9,3.69,9,8.22v9.94c-.19-.1-.38-.18-.57-.27-.39-.18-.79-.36-1.2-.52l-.78-.28-.79-.26c-.43-.13-.88-.24-1.32-.34l-.58-.12c-.53-.1-1-.19-1.58-.25l-.36,0C30.21,18,29.61,18,29,18s-1.21,0-1.82.09l-.36,0c-.53.06-1.05.14-1.58.25l-.58.12c-.44.1-.88.21-1.32.34l-.78.25-.79.29c-.41.16-.81.33-1.2.52C20.38,20,20.19,20.06,20,20.16ZM29,56a18,18,0,0,1-9.26-33.41,18.23,18.23,0,0,1,2.88-1.4l.53-.19c.27-.1.54-.19.82-.27s.69-.19,1-.27.51-.11.77-.15.74-.13,1.12-.18l.51-.05c.53,0,1.06-.08,1.6-.08s1.07,0,1.6.08l.51.05c.38.05.75.11,1.12.18s.51.09.77.15.69.17,1,.27.55.17.82.27l.53.19a18.23,18.23,0,0,1,2.88,1.4A18,18,0,0,1,29,56Z" transform="translate(-9 0)"/></svg>