<?xml version="1.0" encoding="utf-8"?>
<!-- Generator: Adobe Illustrator 22.0.0, SVG Export Plug-In . SVG Version: 6.00 Build 0)  -->
<svg version="1.1" id="Layer_1" xmlns="http://www.w3.org/2000/svg" xmlns:xlink="http://www.w3.org/1999/xlink" x="0px" y="0px"
	 viewBox="0 0 450.1 136.9" style="enable-background:new 0 0 450.1 136.9;" xml:space="preserve">
<style type="text/css">
	.st0{fill:#FFFFFF;}
</style>
<g>
	<path class="st0" d="M33,77L22.2,87.7v19.7H-0.2V0.6h22.5V61l32.8-31.1h26.7L49.6,62.7l35.1,44.6H57.5L33,77z"/>
	<path class="st0" d="M166.9,75h-58.6c1.1,4.8,3.5,8.6,7.5,11.4c3.9,2.8,8.8,4.2,14.7,4.2c4,0,7.6-0.6,10.7-1.8
		c3.1-1.2,6-3.1,8.7-5.7L161.8,96c-7.3,8.4-17.9,12.5-31.9,12.5c-8.7,0-16.5-1.7-23.2-5.1s-11.9-8.1-15.5-14.2
		c-3.6-6-5.5-12.9-5.5-20.6c0-7.6,1.8-14.4,5.4-20.5s8.5-10.8,14.8-14.2s13.3-5.1,21.1-5.1c7.6,0,14.4,1.6,20.6,4.9s11,7.9,14.5,14
		s5.3,13.2,5.3,21.2C167.3,69.2,167.2,71.2,166.9,75z M114.3,50.1c-3.5,2.9-5.6,6.8-6.3,11.8h38.1c-0.8-4.9-2.9-8.8-6.3-11.7
		c-3.5-2.9-7.7-4.4-12.7-4.4C122.1,45.8,117.8,47.2,114.3,50.1z"/>
	<path class="st0" d="M239,37.3c6.4,5.7,9.6,14.3,9.6,25.8v44.2h-21v-9.6c-4.2,7.2-12.1,10.8-23.6,10.8c-5.9,0-11.1-1-15.5-3
		s-7.7-4.8-10-8.4c-2.3-3.5-3.5-7.6-3.5-12.1c0-7.2,2.7-12.9,8.1-17s13.8-6.2,25.1-6.2H226c0-4.9-1.5-8.7-4.5-11.3s-7.4-4-13.4-4
		c-4.1,0-8.2,0.6-12.2,1.9s-7.4,3-10.1,5.3L177.7,38c4.2-3,9.3-5.3,15.2-6.9s12-2.4,18.2-2.4C223.3,28.8,232.5,31.6,239,37.3z
		 M219.8,90.7c3-1.8,5.1-4.4,6.3-7.8V75h-15.3c-9.2,0-13.8,3-13.8,9.1c0,2.9,1.1,5.2,3.4,6.8c2.3,1.7,5.4,2.5,9.3,2.5
		C213.4,93.4,216.9,92.5,219.8,90.7z"/>
	<path class="st0" d="M349.6,29.9v64.5c0,14.2-3.7,24.8-11.1,31.7c-7.4,6.9-18.2,10.4-32.4,10.4c-7.5,0-14.6-0.9-21.3-2.7
		c-6.7-1.8-12.3-4.5-16.7-7.9l8.9-16.1c3.3,2.7,7.4,4.8,12.4,6.4s10,2.4,15,2.4c7.8,0,13.5-1.8,17.2-5.3s5.5-8.8,5.5-15.9v-3.3
		c-5.9,6.4-14,9.6-24.5,9.6c-7.1,0-13.6-1.6-19.5-4.7s-10.6-7.5-14-13.2c-3.5-5.7-5.2-12.2-5.2-19.6s1.7-13.9,5.2-19.6
		c3.4-5.7,8.1-10,14-13.2c5.9-3.1,12.4-4.7,19.5-4.7c11.2,0,19.8,3.7,25.6,11.1v-9.9L349.6,29.9L349.6,29.9z M321.8,79.9
		c3.8-3.5,5.7-8.1,5.7-13.7c0-5.7-1.9-10.2-5.7-13.7c-3.8-3.5-8.7-5.3-14.6-5.3s-10.8,1.8-14.7,5.3c-3.8,3.5-5.8,8.1-5.8,13.7
		c0,5.7,1.9,10.2,5.8,13.7c3.8,3.5,8.7,5.3,14.7,5.3C313.1,85.2,318,83.4,321.8,79.9z"/>
	<path class="st0" d="M385.4,103.4c-6.5-3.4-11.5-8.1-15.2-14.2c-3.6-6-5.5-12.9-5.5-20.6s1.8-14.5,5.5-20.6
		c3.6-6,8.7-10.8,15.2-14.2s13.8-5.1,21.9-5.1c8.2,0,15.4,1.7,21.9,5.1c6.4,3.4,11.5,8.1,15.1,14.2c3.7,6,5.5,12.9,5.5,20.6
		s-1.8,14.5-5.5,20.6c-3.6,6-8.7,10.8-15.1,14.2c-6.4,3.4-13.7,5.1-21.9,5.1C399.2,108.5,391.9,106.8,385.4,103.4z M421.5,84.3
		c3.7-3.9,5.5-9.1,5.5-15.6s-1.9-11.7-5.5-15.6c-3.7-3.9-8.4-5.8-14.2-5.8s-10.5,1.9-14.2,5.8s-5.6,9.1-5.6,15.6s1.9,11.7,5.6,15.6
		s8.5,5.8,14.2,5.8C413.1,90.1,417.8,88.1,421.5,84.3z"/>
</g>
</svg>
