<svg xmlns="http://www.w3.org/2000/svg" viewBox="0 0 163.623 188.643">
  <g id="security" transform="translate(4 51)">
    <path id="Tracé_39" data-name="Tracé 39" d="M160.429,36.2A55.446,55.446,0,0,1,126.817,3.542L125.464,0h-86.3L37.806,3.542A55.445,55.445,0,0,1,4.193,36.2L.5,37.483V63.061A136.822,136.822,0,0,0,74.487,184.6l7.825,4.044,7.824-4.046A136.817,136.817,0,0,0,164.123,63.061V37.483ZM153.11,63.061A125.352,125.352,0,0,1,85.079,174.815l-2.768,1.431-2.768-1.431A125.349,125.349,0,0,1,11.513,63.061V45.185A66.4,66.4,0,0,0,46.626,11.013H118A66.393,66.393,0,0,0,153.11,45.185Zm0,0" transform="translate(-4.5 -51)"/>
    <path id="Tracé_40" data-name="Tracé 40" d="M148.63,58.809l-1.6-2.684H89.6l-1.6,2.684c-7.186,12.035-12.849,18.606-27.4,25.724L57.5,86.042v19.139l.009.312A113.243,113.243,0,0,0,72.78,156.554a104.092,104.092,0,0,0,39.02,37.978l6.513,3.371,6.367-3.292.146-.079a104.115,104.115,0,0,0,39.02-37.978,113.24,113.24,0,0,0,15.267-51.061l.009-19.451-3.087-1.51C161.48,77.415,155.818,70.844,148.63,58.809ZM123.193,99.46a4.88,4.88,0,1,1-4.88-4.88A4.885,4.885,0,0,1,123.193,99.46ZM94.3,135.037a4.88,4.88,0,1,1,4.88,4.88A4.886,4.886,0,0,1,94.3,135.037Zm38.272,0a4.88,4.88,0,1,1,4.88,4.88A4.886,4.886,0,0,1,132.568,135.037Zm35.54-30.014c-1.37,23.525-10.393,44.993-25.153,61.252V149.944a15.893,15.893,0,1,0-11.013,0V176.58a91.942,91.942,0,0,1-12.395,8.287l-1.235.639-1.235-.639a91.846,91.846,0,0,1-12.394-8.287V149.946a15.893,15.893,0,1,0-11.013,0v16.329c-14.761-16.259-23.785-37.727-25.153-61.252V92.857c13.611-7.185,20.405-14.663,27.3-25.719h16.992V84.553a15.894,15.894,0,1,0,11.013,0V67.138h16.992c6.892,11.056,13.687,18.534,27.3,25.719Zm0,0" transform="translate(-40.501 -86.446)"/>
  </g>
</svg>
