<?xml version="1.0" encoding="utf-8"?>
<!-- Generator: Adobe Illustrator 22.1.0, SVG Export Plug-In . SVG Version: 6.00 Build 0)  -->
<svg version="1.1" id="Calque_1" xmlns="http://www.w3.org/2000/svg" xmlns:xlink="http://www.w3.org/1999/xlink" x="0px" y="0px"
	 viewBox="0 0 1366 768" style="enable-background:new 0 0 1366 768;" xml:space="preserve">
<style type="text/css">
	.st0{clip-path:url(#SVGID_2_);}
	.st1{clip-path:url(#SVGID_4_);fill:#FFD600;}
	.st2{clip-path:url(#SVGID_6_);}
	.st3{clip-path:url(#SVGID_8_);fill:#FFD600;}
	.st4{clip-path:url(#SVGID_10_);}
	.st5{clip-path:url(#SVGID_12_);fill:#FFD600;}
	.st6{clip-path:url(#SVGID_14_);}
	.st7{clip-path:url(#SVGID_16_);fill:#FFFFFF;}
	.st8{clip-path:url(#SVGID_18_);}
	.st9{clip-path:url(#SVGID_20_);fill:#FFFFFF;}
	.st10{clip-path:url(#SVGID_22_);}
	.st11{clip-path:url(#SVGID_24_);fill:#FFD600;}
	.st12{clip-path:url(#SVGID_26_);}
	.st13{clip-path:url(#SVGID_28_);fill:#FFFFFF;}
	.st14{clip-path:url(#SVGID_30_);}
	.st15{clip-path:url(#SVGID_32_);fill:#FFD600;}
	.st16{clip-path:url(#SVGID_34_);}
	.st17{clip-path:url(#SVGID_36_);fill:#FFFFFF;}
	.st18{clip-path:url(#SVGID_38_);}
	.st19{clip-path:url(#SVGID_40_);fill:#FFD600;}
	.st20{clip-path:url(#SVGID_42_);}
	.st21{clip-path:url(#SVGID_44_);fill:#FFFFFF;}
	.st22{clip-path:url(#SVGID_46_);}
	.st23{clip-path:url(#SVGID_48_);fill:#FFD600;}
	.st24{clip-path:url(#SVGID_50_);}
	.st25{clip-path:url(#SVGID_52_);fill:#FFFFFF;}
	.st26{clip-path:url(#SVGID_54_);}
	.st27{clip-path:url(#SVGID_56_);fill:#FFD600;}
	.st28{clip-path:url(#SVGID_58_);}
	.st29{clip-path:url(#SVGID_60_);fill:#FFD600;}
	.st30{clip-path:url(#SVGID_62_);}
	.st31{clip-path:url(#SVGID_64_);fill:#FFFFFF;}
	.st32{clip-path:url(#SVGID_66_);}
	.st33{clip-path:url(#SVGID_68_);fill:#FFFFFF;}
	.st34{clip-path:url(#SVGID_70_);fill:none;stroke:#979797;stroke-width:5;stroke-linecap:square;stroke-miterlimit:10;}
	.st35{clip-path:url(#SVGID_70_);}
	.st36{fill:#FFFFFF;}
	.st37{font-family:'TruenoBd';}
	.st38{font-size:14px;}
	.st39{fill:#F5A623;}
	.st40{font-size:18px;}
	.st41{font-family:'TruenoLt';}
	.st42{clip-path:url(#SVGID_72_);}
	.st43{clip-path:url(#SVGID_74_);fill:none;stroke:#F5A623;stroke-width:6;stroke-miterlimit:10;}
</style>
<g>
	<defs>
		<circle id="SVGID_1_" cx="335" cy="416" r="13"/>
	</defs>
	<clipPath id="SVGID_2_">
		<use xlink:href="#SVGID_1_"  style="overflow:visible;"/>
	</clipPath>
	<g class="st0">
		<defs>
			<rect id="SVGID_3_" x="-37" y="-360" width="1440" height="1328"/>
		</defs>
		<clipPath id="SVGID_4_">
			<use xlink:href="#SVGID_3_"  style="overflow:visible;"/>
		</clipPath>
		<rect x="317" y="398" class="st1" width="36" height="36"/>
	</g>
</g>
<g>
	<defs>
		<circle id="SVGID_5_" cx="213" cy="416" r="13"/>
	</defs>
	<clipPath id="SVGID_6_">
		<use xlink:href="#SVGID_5_"  style="overflow:visible;"/>
	</clipPath>
	<g class="st2">
		<defs>
			<rect id="SVGID_7_" x="-37" y="-360" width="1440" height="1328"/>
		</defs>
		<clipPath id="SVGID_8_">
			<use xlink:href="#SVGID_7_"  style="overflow:visible;"/>
		</clipPath>
		<rect x="195" y="398" class="st3" width="36" height="36"/>
	</g>
</g>
<g>
	<defs>
		<circle id="SVGID_9_" cx="451" cy="416" r="13"/>
	</defs>
	<clipPath id="SVGID_10_">
		<use xlink:href="#SVGID_9_"  style="overflow:visible;"/>
	</clipPath>
	<g class="st4">
		<defs>
			<rect id="SVGID_11_" x="-37" y="-360" width="1440" height="1328"/>
		</defs>
		<clipPath id="SVGID_12_">
			<use xlink:href="#SVGID_11_"  style="overflow:visible;"/>
		</clipPath>
		<rect x="433" y="398" class="st5" width="36" height="36"/>
	</g>
</g>
<g>
	<defs>
		<path id="SVGID_13_" d="M434,416c0,2.2-1.8,4-4,4h-74c-2.2,0-4-1.8-4-4s1.8-4,4-4h74C432.2,412,434,413.8,434,416z"/>
	</defs>
	<clipPath id="SVGID_14_">
		<use xlink:href="#SVGID_13_"  style="overflow:visible;"/>
	</clipPath>
	<g class="st6">
		<defs>
			<rect id="SVGID_15_" x="-37" y="-360" width="1440" height="1328"/>
		</defs>
		<clipPath id="SVGID_16_">
			<use xlink:href="#SVGID_15_"  style="overflow:visible;"/>
		</clipPath>
		<rect x="347" y="407" class="st7" width="92" height="18"/>
	</g>
</g>
<g>
	<defs>
		<path id="SVGID_17_" d="M312,416c0,2.2-1.8,4-4,4h-74c-2.2,0-4-1.8-4-4s1.8-4,4-4h74C310.2,412,312,413.8,312,416z"/>
	</defs>
	<clipPath id="SVGID_18_">
		<use xlink:href="#SVGID_17_"  style="overflow:visible;"/>
	</clipPath>
	<g class="st8">
		<defs>
			<rect id="SVGID_19_" x="-37" y="-360" width="1440" height="1328"/>
		</defs>
		<clipPath id="SVGID_20_">
			<use xlink:href="#SVGID_19_"  style="overflow:visible;"/>
		</clipPath>
		<rect x="225" y="407" class="st9" width="92" height="18"/>
	</g>
</g>
<g>
	<defs>
		<circle id="SVGID_21_" cx="567" cy="416" r="13"/>
	</defs>
	<clipPath id="SVGID_22_">
		<use xlink:href="#SVGID_21_"  style="overflow:visible;"/>
	</clipPath>
	<g class="st10">
		<defs>
			<rect id="SVGID_23_" x="-37" y="-360" width="1440" height="1328"/>
		</defs>
		<clipPath id="SVGID_24_">
			<use xlink:href="#SVGID_23_"  style="overflow:visible;"/>
		</clipPath>
		<rect x="549" y="398" class="st11" width="36" height="36"/>
	</g>
</g>
<g>
	<defs>
		<path id="SVGID_25_" d="M550,416c0,2.2-1.8,4-4,4h-74c-2.2,0-4-1.8-4-4s1.8-4,4-4h74C548.2,412,550,413.8,550,416z"/>
	</defs>
	<clipPath id="SVGID_26_">
		<use xlink:href="#SVGID_25_"  style="overflow:visible;"/>
	</clipPath>
	<g class="st12">
		<defs>
			<rect id="SVGID_27_" x="-37" y="-360" width="1440" height="1328"/>
		</defs>
		<clipPath id="SVGID_28_">
			<use xlink:href="#SVGID_27_"  style="overflow:visible;"/>
		</clipPath>
		<rect x="463" y="407" class="st13" width="92" height="18"/>
	</g>
</g>
<g>
	<defs>
		<circle id="SVGID_29_" cx="683" cy="416" r="13"/>
	</defs>
	<clipPath id="SVGID_30_">
		<use xlink:href="#SVGID_29_"  style="overflow:visible;"/>
	</clipPath>
	<g class="st14">
		<defs>
			<rect id="SVGID_31_" x="-37" y="-360" width="1440" height="1328"/>
		</defs>
		<clipPath id="SVGID_32_">
			<use xlink:href="#SVGID_31_"  style="overflow:visible;"/>
		</clipPath>
		<rect x="665" y="398" class="st15" width="36" height="36"/>
	</g>
</g>
<g>
	<defs>
		<path id="SVGID_33_" d="M666,416c0,2.2-1.8,4-4,4h-74c-2.2,0-4-1.8-4-4s1.8-4,4-4h74C664.2,412,666,413.8,666,416z"/>
	</defs>
	<clipPath id="SVGID_34_">
		<use xlink:href="#SVGID_33_"  style="overflow:visible;"/>
	</clipPath>
	<g class="st16">
		<defs>
			<rect id="SVGID_35_" x="-37" y="-360" width="1440" height="1328"/>
		</defs>
		<clipPath id="SVGID_36_">
			<use xlink:href="#SVGID_35_"  style="overflow:visible;"/>
		</clipPath>
		<rect x="579" y="407" class="st17" width="92" height="18"/>
	</g>
</g>
<g>
	<defs>
		<circle id="SVGID_37_" cx="799" cy="416" r="13"/>
	</defs>
	<clipPath id="SVGID_38_">
		<use xlink:href="#SVGID_37_"  style="overflow:visible;"/>
	</clipPath>
	<g class="st18">
		<defs>
			<rect id="SVGID_39_" x="-37" y="-360" width="1440" height="1328"/>
		</defs>
		<clipPath id="SVGID_40_">
			<use xlink:href="#SVGID_39_"  style="overflow:visible;"/>
		</clipPath>
		<rect x="781" y="398" class="st19" width="36" height="36"/>
	</g>
</g>
<g>
	<defs>
		<path id="SVGID_41_" d="M782,416c0,2.2-1.8,4-4,4h-74c-2.2,0-4-1.8-4-4s1.8-4,4-4h74C780.2,412,782,413.8,782,416z"/>
	</defs>
	<clipPath id="SVGID_42_">
		<use xlink:href="#SVGID_41_"  style="overflow:visible;"/>
	</clipPath>
	<g class="st20">
		<defs>
			<rect id="SVGID_43_" x="-37" y="-360" width="1440" height="1328"/>
		</defs>
		<clipPath id="SVGID_44_">
			<use xlink:href="#SVGID_43_"  style="overflow:visible;"/>
		</clipPath>
		<rect x="695" y="407" class="st21" width="92" height="18"/>
	</g>
</g>
<g>
	<defs>
		<circle id="SVGID_45_" cx="915" cy="416" r="13"/>
	</defs>
	<clipPath id="SVGID_46_">
		<use xlink:href="#SVGID_45_"  style="overflow:visible;"/>
	</clipPath>
	<g class="st22">
		<defs>
			<rect id="SVGID_47_" x="-37" y="-360" width="1440" height="1328"/>
		</defs>
		<clipPath id="SVGID_48_">
			<use xlink:href="#SVGID_47_"  style="overflow:visible;"/>
		</clipPath>
		<rect x="897" y="398" class="st23" width="36" height="36"/>
	</g>
</g>
<g>
	<defs>
		<path id="SVGID_49_" d="M898,416c0,2.2-1.8,4-4,4h-74c-2.2,0-4-1.8-4-4s1.8-4,4-4h74C896.2,412,898,413.8,898,416z"/>
	</defs>
	<clipPath id="SVGID_50_">
		<use xlink:href="#SVGID_49_"  style="overflow:visible;"/>
	</clipPath>
	<g class="st24">
		<defs>
			<rect id="SVGID_51_" x="-37" y="-360" width="1440" height="1328"/>
		</defs>
		<clipPath id="SVGID_52_">
			<use xlink:href="#SVGID_51_"  style="overflow:visible;"/>
		</clipPath>
		<rect x="811" y="407" class="st25" width="92" height="18"/>
	</g>
</g>
<g>
	<defs>
		<circle id="SVGID_53_" cx="1031" cy="416" r="13"/>
	</defs>
	<clipPath id="SVGID_54_">
		<use xlink:href="#SVGID_53_"  style="overflow:visible;"/>
	</clipPath>
	<g class="st26">
		<defs>
			<rect id="SVGID_55_" x="-37" y="-360" width="1440" height="1328"/>
		</defs>
		<clipPath id="SVGID_56_">
			<use xlink:href="#SVGID_55_"  style="overflow:visible;"/>
		</clipPath>
		<rect x="1013" y="398" class="st27" width="36" height="36"/>
	</g>
</g>
<g>
	<defs>
		<circle id="SVGID_57_" cx="1153" cy="416" r="13"/>
	</defs>
	<clipPath id="SVGID_58_">
		<use xlink:href="#SVGID_57_"  style="overflow:visible;"/>
	</clipPath>
	<g class="st28">
		<defs>
			<rect id="SVGID_59_" x="-37" y="-360" width="1440" height="1328"/>
		</defs>
		<clipPath id="SVGID_60_">
			<use xlink:href="#SVGID_59_"  style="overflow:visible;"/>
		</clipPath>
		<rect x="1135" y="398" class="st29" width="36" height="36"/>
	</g>
</g>
<g>
	<defs>
		<path id="SVGID_61_" d="M1014,416c0,2.2-1.8,4-4,4h-74c-2.2,0-4-1.8-4-4s1.8-4,4-4h74C1012.2,412,1014,413.8,1014,416z"/>
	</defs>
	<clipPath id="SVGID_62_">
		<use xlink:href="#SVGID_61_"  style="overflow:visible;"/>
	</clipPath>
	<g class="st30">
		<defs>
			<rect id="SVGID_63_" x="-37" y="-360" width="1440" height="1328"/>
		</defs>
		<clipPath id="SVGID_64_">
			<use xlink:href="#SVGID_63_"  style="overflow:visible;"/>
		</clipPath>
		<rect x="927" y="407" class="st31" width="92" height="18"/>
	</g>
</g>
<g>
	<defs>
		<path id="SVGID_65_" d="M1136,416c0,2.2-1.8,4-4,4h-74c-2.2,0-4-1.8-4-4s1.8-4,4-4h74C1134.2,412,1136,413.8,1136,416z"/>
	</defs>
	<clipPath id="SVGID_66_">
		<use xlink:href="#SVGID_65_"  style="overflow:visible;"/>
	</clipPath>
	<g class="st32">
		<defs>
			<rect id="SVGID_67_" x="-37" y="-360" width="1440" height="1328"/>
		</defs>
		<clipPath id="SVGID_68_">
			<use xlink:href="#SVGID_67_"  style="overflow:visible;"/>
		</clipPath>
		<rect x="1049" y="407" class="st33" width="92" height="18"/>
	</g>
</g>
<g>
	<defs>
		<rect id="SVGID_69_" x="-37" y="-360" width="1440" height="1328"/>
	</defs>
	<clipPath id="SVGID_70_">
		<use xlink:href="#SVGID_69_"  style="overflow:visible;"/>
	</clipPath>
	<line class="st34" x1="213.2" y1="344.5" x2="213.2" y2="395.5"/>
	<line class="st34" x1="450.2" y1="346.5" x2="450.2" y2="397.5"/>
	<line class="st34" x1="682.2" y1="346.5" x2="682.2" y2="397.5"/>
	<line class="st34" x1="914.2" y1="353.5" x2="914.2" y2="397.5"/>
	<line class="st34" x1="1153.2" y1="396.5" x2="1153.2" y2="434.5"/>
	<line class="st34" x1="566.2" y1="438.5" x2="566.2" y2="489.5"/>
	<line class="st34" x1="335.2" y1="438.5" x2="335.2" y2="489.5"/>
	<line class="st34" x1="797.2" y1="438.5" x2="797.2" y2="489.5"/>
	<line class="st34" x1="1031.2" y1="438.5" x2="1031.2" y2="489.5"/>
	<g class="st35">
		<text transform="matrix(1 0 0 1 116 331)"><tspan x="0" y="0" class="st36 st37 st38">N</tspan><tspan x="11" y="0" class="st36 st37 st38">O</tspan><tspan x="22.1" y="0" class="st36 st37 st38">V</tspan></text>
	</g>
	<g class="st35">
		<text transform="matrix(1 0 0 1 148.3398 331)" class="st39 st37 st38">2016</text>
	</g>
	<g class="st35">
		<text transform="matrix(1 0 0 1 181.1982 331)" class="st39 st37 st40"> : </text>
	</g>
	<g class="st35">
		<text transform="matrix(1 0 0 1 193.8701 331)" class="st36 st41 st38">the idea is born.</text>
	</g>
	<g class="st35">
		<text transform="matrix(1 0 0 1 239 519)" class="st36 st37 st38">MAR</text>
	</g>
	<g class="st35">
		<text transform="matrix(1 0 0 1 272.6558 519)" class="st39 st37 st38">2017</text>
	</g>
	<g class="st35">
		<text transform="matrix(1 0 0 1 304.9819 519)" class="st39 st37 st40"> : </text>
	</g>
	<g class="st35">
		<text transform="matrix(1 0 0 1 317.6538 519)"><tspan x="0" y="0" class="st36 st41 st38">First </tspan><tspan x="32.5" y="0" class="st36 st41 st38">w</tspan><tspan x="44.3" y="0" class="st36 st41 st38">orking </tspan></text>
	</g>
	<g class="st35">
		<text transform="matrix(1 0 0 1 239 536)"><tspan x="0" y="0" class="st36 st41 st38">pro</tspan><tspan x="23.3" y="0" class="st36 st41 st38">t</tspan><tspan x="28.7" y="0" class="st36 st41 st38">otype </tspan><tspan x="71.4" y="0" class="st36 st41 st38">o</tspan><tspan x="80" y="0" class="st36 st41 st38">f the Mortise.</tspan></text>
	</g>
	<g class="st35">
		<text transform="matrix(1 0 0 1 357 314)" class="st36 st37 st38">APR</text>
	</g>
	<g class="st35">
		<text transform="matrix(1 0 0 1 387.436 314)" class="st39 st37 st38">2017</text>
	</g>
	<g class="st35">
		<text transform="matrix(1 0 0 1 419.7622 314)" class="st39 st37 st40"> : </text>
	</g>
	<g class="st35">
		<text transform="matrix(1 0 0 1 432.4341 314)"><tspan x="0" y="0" class="st36 st41 st38">Mar</tspan><tspan x="26.2" y="0" class="st36 st41 st38">k</tspan><tspan x="33.9" y="0" class="st36 st41 st38">et research </tspan></text>
	</g>
	<g class="st35">
		<text transform="matrix(1 0 0 1 357 331)"><tspan x="0" y="0" class="st36 st41 st38">and n</tspan><tspan x="39.8" y="0" class="st36 st41 st38">e</tspan><tspan x="47.8" y="0" class="st36 st41 st38">w </tspan><tspan x="63.7" y="0" class="st36 st41 st38">f</tspan><tspan x="68.1" y="0" class="st36 st41 st38">eatures </tspan></text>
	</g>
	<g class="st35">
		<text transform="matrix(1 0 0 1 482 519)"><tspan x="0" y="0" class="st36 st37 st38">O</tspan><tspan x="11.1" y="0" class="st36 st37 st38">CT</tspan></text>
	</g>
	<g class="st35">
		<text transform="matrix(1 0 0 1 511.3301 519)" class="st39 st37 st38">2017</text>
	</g>
	<g class="st35">
		<text transform="matrix(1 0 0 1 543.6558 519)" class="st39 st37 st40"> : </text>
	</g>
	<g class="st35">
		<text transform="matrix(1 0 0 1 556.3281 519)"><tspan x="0" y="0" class="st36 st41 st38">Se</tspan><tspan x="16.8" y="0" class="st36 st41 st38">c</tspan><tspan x="24.3" y="0" class="st36 st41 st38">ond </tspan></text>
	</g>
	<g class="st35">
		<text transform="matrix(1 0 0 1 482 536)"><tspan x="0" y="0" class="st36 st41 st38">gene</tspan><tspan x="34.6" y="0" class="st36 st41 st38">r</tspan><tspan x="39.4" y="0" class="st36 st41 st38">ation </tspan><tspan x="78.4" y="0" class="st36 st41 st38">o</tspan><tspan x="87" y="0" class="st36 st41 st38">f </tspan><tspan x="95.4" y="0" class="st36 st41 st38">w</tspan><tspan x="107.2" y="0" class="st36 st41 st38">orking </tspan></text>
	</g>
	<g class="st35">
		<text transform="matrix(1 0 0 1 482 553)"><tspan x="0" y="0" class="st36 st41 st38">pro</tspan><tspan x="23.3" y="0" class="st36 st41 st38">t</tspan><tspan x="28.7" y="0" class="st36 st41 st38">otypes.</tspan></text>
	</g>
	<g class="st35">
		<text transform="matrix(1 0 0 1 593 314)" class="st36 st37 st38">APR</text>
	</g>
	<g class="st35">
		<text transform="matrix(1 0 0 1 623.436 314)" class="st39 st37 st38">2018</text>
	</g>
	<g class="st35">
		<text transform="matrix(1 0 0 1 656.4341 314)" class="st39 st37 st40"> : </text>
	</g>
	<g class="st35">
		<text transform="matrix(1 0 0 1 669.106 314)"><tspan x="0" y="0" class="st36 st41 st38">Final pro</tspan><tspan x="59.9" y="0" class="st36 st41 st38">t</tspan><tspan x="65.3" y="0" class="st36 st41 st38">otypes </tspan></text>
	</g>
	<g class="st35">
		<text transform="matrix(1 0 0 1 593 331)"><tspan x="0" y="0" class="st36 st41 st38">and optimi</tspan><tspan x="76.3" y="0" class="st36 st41 st38">z</tspan><tspan x="83.5" y="0" class="st36 st41 st38">ation </tspan><tspan x="122.4" y="0" class="st36 st41 st38">o</tspan><tspan x="131" y="0" class="st36 st41 st38">f the app.</tspan></text>
	</g>
	<g class="st35">
		<text transform="matrix(1 0 0 1 718 519)"><tspan x="0" y="0" class="st36 st37 st38">APR</tspan><tspan x="30.4" y="0" class="st36 st37 st38">-</tspan><tspan x="35.3" y="0" class="st36 st37 st38">JUL</tspan></text>
	</g>
	<g class="st35">
		<text transform="matrix(1 0 0 1 779.2778 519)" class="st39 st37 st38">2018</text>
	</g>
	<g class="st35">
		<text transform="matrix(1 0 0 1 812.2759 519)" class="st39 st37 st40"> : </text>
	</g>
	<g class="st35">
		<text transform="matrix(1 0 0 1 824.9482 519)"><tspan x="0" y="0" class="st36 st41 st38">Product </tspan><tspan x="58.9" y="0" class="st36 st41 st38">t</tspan><tspan x="64.3" y="0" class="st36 st41 st38">est, </tspan></text>
	</g>
	<g class="st35">
		<text transform="matrix(1 0 0 1 718 536)"><tspan x="0" y="0" class="st36 st41 st38">b</tspan><tspan x="9.5" y="0" class="st36 st41 st38">r</tspan><tspan x="14.3" y="0" class="st36 st41 st38">anding, </tspan><tspan x="69.5" y="0" class="st36 st41 st38">c</tspan><tspan x="77" y="0" class="st36 st41 st38">ost </tspan><tspan x="101.3" y="0" class="st36 st41 st38">c</tspan><tspan x="108.8" y="0" class="st36 st41 st38">alculation.</tspan></text>
	</g>
	<g class="st35">
		<text transform="matrix(1 0 0 1 941 519)" class="st36 st37 st38">DEC</text>
	</g>
	<g class="st35">
		<text transform="matrix(1 0 0 1 970.8618 519)" class="st39 st37 st38">2018</text>
	</g>
	<g class="st35">
		<text transform="matrix(1 0 0 1 1003.8599 519)" class="st39 st37 st40"> : </text>
	</g>
	<g class="st35">
		<text transform="matrix(1 0 0 1 1016.5322 519)" class="st36 st41 st38">Mass production </text>
	</g>
	<g class="st35">
		<text transform="matrix(1 0 0 1 941 536)"><tspan x="0" y="0" class="st36 st41 st38">and shipping </tspan><tspan x="94.5" y="0" class="st36 st41 st38">o</tspan><tspan x="103.2" y="0" class="st36 st41 st38">f Mortie.</tspan></text>
	</g>
	<g class="st35">
		<text transform="matrix(1 0 0 1 1064 307)"><tspan x="0" y="0" class="st36 st37 st38">J</tspan><tspan x="7.2" y="0" class="st36 st37 st38">AN</tspan></text>
	</g>
	<g class="st35">
		<text transform="matrix(1 0 0 1 1093.0078 307)" class="st39 st37 st38">2019</text>
	</g>
	<g class="st35">
		<text transform="matrix(1 0 0 1 1125.8662 307)" class="st39 st37 st40"> : </text>
	</g>
	<g class="st35">
		<text transform="matrix(1 0 0 1 1138.5381 307)" class="st36 st41 st38">Mass production </text>
	</g>
	<g class="st35">
		<text transform="matrix(1 0 0 1 1064 324)"><tspan x="0" y="0" class="st36 st41 st38">and shipping </tspan><tspan x="94.5" y="0" class="st36 st41 st38">o</tspan><tspan x="103.2" y="0" class="st36 st41 st38">f deadbolt </tspan></text>
	</g>
	<g class="st35">
		<text transform="matrix(1 0 0 1 1064 341)"><tspan x="0" y="0" class="st36 st41 st38">v</tspan><tspan x="6.7" y="0" class="st36 st41 st38">ersion.</tspan></text>
	</g>
	<g class="st35">
		<text transform="matrix(1 0 0 1 831 315)"><tspan x="0" y="0" class="st36 st37 st38">A</tspan><tspan x="10.5" y="0" class="st36 st37 st38">UG</tspan></text>
	</g>
	<g class="st35">
		<text transform="matrix(1 0 0 1 862.5142 315)" class="st39 st37 st38">2018</text>
	</g>
	<g class="st35">
		<text transform="matrix(1 0 0 1 895.5122 315)" class="st39 st37 st40"> : </text>
	</g>
	<g class="st35">
		<text transform="matrix(1 0 0 1 908.1841 315)"><tspan x="0" y="0" class="st36 st41 st38">Kic</tspan><tspan x="21.4" y="0" class="st36 st41 st38">k</tspan><tspan x="29.3" y="0" class="st36 st41 st38">star</tspan><tspan x="54.4" y="0" class="st36 st41 st38">t</tspan><tspan x="59.8" y="0" class="st36 st41 st38">er </tspan></text>
	</g>
	<g class="st35">
		<text transform="matrix(1 0 0 1 831 332)"><tspan x="0" y="0" class="st36 st41 st38">c</tspan><tspan x="7.5" y="0" class="st36 st41 st38">ampaign starts.</tspan></text>
	</g>
</g>
<g>
	<defs>
		<rect id="SVGID_71_" x="819" y="296" width="205" height="48"/>
	</defs>
	<clipPath id="SVGID_72_">
		<use xlink:href="#SVGID_71_"  style="overflow:visible;"/>
	</clipPath>
	<g class="st42">
		<defs>
			<rect id="SVGID_73_" x="-37" y="-360" width="1440" height="1328"/>
		</defs>
		<clipPath id="SVGID_74_">
			<use xlink:href="#SVGID_73_"  style="overflow:visible;"/>
		</clipPath>
		<rect x="819" y="296" class="st43" width="205" height="48"/>
	</g>
</g>
</svg>
