<svg id="Calque_1" data-name="Calque 1" xmlns="http://www.w3.org/2000/svg" xmlns:xlink="http://www.w3.org/1999/xlink" viewBox="0 0 779.9 180.84"><defs><style>.cls-1,.cls-22,.cls-47{fill:none;}.cls-2{clip-path:url(#clip-path);}.cls-3{clip-path:url(#clip-path-2);}.cls-4{fill:#ffd600;}.cls-5{clip-path:url(#clip-path-3);}.cls-6{clip-path:url(#clip-path-5);}.cls-7{clip-path:url(#clip-path-7);}.cls-23,.cls-27,.cls-8{fill:#fff;}.cls-9{clip-path:url(#clip-path-9);}.cls-10{clip-path:url(#clip-path-11);}.cls-11{clip-path:url(#clip-path-13);}.cls-12{clip-path:url(#clip-path-15);}.cls-13{clip-path:url(#clip-path-17);}.cls-14{clip-path:url(#clip-path-19);}.cls-15{clip-path:url(#clip-path-21);}.cls-16{clip-path:url(#clip-path-23);}.cls-17{clip-path:url(#clip-path-25);}.cls-18{clip-path:url(#clip-path-27);}.cls-19{clip-path:url(#clip-path-29);}.cls-20{clip-path:url(#clip-path-31);}.cls-21{clip-path:url(#clip-path-33);}.cls-22{stroke:#979797;stroke-linecap:square;stroke-width:5px;}.cls-22,.cls-47{stroke-miterlimit:10;}.cls-23,.cls-25,.cls-27{font-size:9.57px;}.cls-23,.cls-25,.cls-26{font-family:TruenoBd, Trueno;font-weight:700;}.cls-24{letter-spacing:-0.01em;}.cls-25,.cls-26{fill:#f5a623;}.cls-26{font-size:12.31px;}.cls-27{font-family:TruenoLt, Trueno;}.cls-28{letter-spacing:-0.02em;}.cls-29{letter-spacing:-0.01em;}.cls-30{letter-spacing:0em;}.cls-31{letter-spacing:0em;}.cls-32{letter-spacing:-0.02em;}.cls-33{letter-spacing:-0.01em;}.cls-34{letter-spacing:-0.01em;}.cls-35{letter-spacing:-0.02em;}.cls-36{letter-spacing:-0.02em;}.cls-37{letter-spacing:-0.02em;}.cls-38{letter-spacing:0em;}.cls-39{letter-spacing:-0.03em;}.cls-40{letter-spacing:-0.03em;}.cls-41{letter-spacing:0em;}.cls-42{letter-spacing:-0.02em;}.cls-43{letter-spacing:-0.02em;}.cls-44{letter-spacing:0em;}.cls-45{letter-spacing:-0.03em;}.cls-46{clip-path:url(#clip-path-36);}.cls-47{stroke:#f5a623;stroke-width:6px;}</style><clipPath id="clip-path" transform="translate(-117.32 -46.53)"><circle class="cls-1" cx="267.06" cy="131.58" r="8.89"/></clipPath><clipPath id="clip-path-2" transform="translate(-117.32 -46.53)"><rect class="cls-1" x="12.71" y="-399" width="984.58" height="908"/></clipPath><clipPath id="clip-path-3" transform="translate(-117.32 -46.53)"><circle class="cls-1" cx="183.64" cy="131.58" r="8.89"/></clipPath><clipPath id="clip-path-5" transform="translate(-117.32 -46.53)"><circle class="cls-1" cx="346.37" cy="131.58" r="8.89"/></clipPath><clipPath id="clip-path-7" transform="translate(-117.32 -46.53)"><path class="cls-1" d="M334.75,131.58a2.74,2.74,0,0,1-2.73,2.73h-50.6a2.74,2.74,0,1,1,0-5.47H332A2.74,2.74,0,0,1,334.75,131.58Z"/></clipPath><clipPath id="clip-path-9" transform="translate(-117.32 -46.53)"><path class="cls-1" d="M251.33,131.58a2.74,2.74,0,0,1-2.73,2.73H198a2.74,2.74,0,0,1,0-5.47h50.6A2.74,2.74,0,0,1,251.33,131.58Z"/></clipPath><clipPath id="clip-path-11" transform="translate(-117.32 -46.53)"><circle class="cls-1" cx="425.69" cy="131.58" r="8.89"/></clipPath><clipPath id="clip-path-13" transform="translate(-117.32 -46.53)"><path class="cls-1" d="M414.06,131.58a2.74,2.74,0,0,1-2.73,2.73h-50.6a2.74,2.74,0,0,1,0-5.47h50.6A2.74,2.74,0,0,1,414.06,131.58Z"/></clipPath><clipPath id="clip-path-15" transform="translate(-117.32 -46.53)"><circle class="cls-1" cx="505" cy="131.58" r="8.89"/></clipPath><clipPath id="clip-path-17" transform="translate(-117.32 -46.53)"><path class="cls-1" d="M493.38,131.58a2.74,2.74,0,0,1-2.74,2.73H440.05a2.74,2.74,0,1,1,0-5.47h50.59A2.74,2.74,0,0,1,493.38,131.58Z"/></clipPath><clipPath id="clip-path-19" transform="translate(-117.32 -46.53)"><circle class="cls-1" cx="584.31" cy="131.58" r="8.89"/></clipPath><clipPath id="clip-path-21" transform="translate(-117.32 -46.53)"><path class="cls-1" d="M572.69,131.58a2.74,2.74,0,0,1-2.74,2.73H519.36a2.74,2.74,0,1,1,0-5.47H570A2.74,2.74,0,0,1,572.69,131.58Z"/></clipPath><clipPath id="clip-path-23" transform="translate(-117.32 -46.53)"><circle class="cls-1" cx="663.63" cy="131.58" r="8.89"/></clipPath><clipPath id="clip-path-25" transform="translate(-117.32 -46.53)"><path class="cls-1" d="M652,131.58a2.74,2.74,0,0,1-2.73,2.73h-50.6a2.74,2.74,0,0,1,0-5.47h50.6A2.74,2.74,0,0,1,652,131.58Z"/></clipPath><clipPath id="clip-path-27" transform="translate(-117.32 -46.53)"><circle class="cls-1" cx="742.94" cy="131.58" r="8.89"/></clipPath><clipPath id="clip-path-29" transform="translate(-117.32 -46.53)"><circle class="cls-1" cx="826.36" cy="131.58" r="8.89"/></clipPath><clipPath id="clip-path-31" transform="translate(-117.32 -46.53)"><path class="cls-1" d="M731.32,131.58a2.74,2.74,0,0,1-2.74,2.73H678a2.74,2.74,0,0,1,0-5.47h50.6A2.74,2.74,0,0,1,731.32,131.58Z"/></clipPath><clipPath id="clip-path-33" transform="translate(-117.32 -46.53)"><path class="cls-1" d="M814.73,131.58a2.74,2.74,0,0,1-2.73,2.73H761.4a2.74,2.74,0,0,1,0-5.47H812A2.74,2.74,0,0,1,814.73,131.58Z"/></clipPath><clipPath id="clip-path-36" transform="translate(-117.32 -46.53)"><rect class="cls-1" x="597.99" y="49.53" width="140.17" height="32.82"/></clipPath></defs><title>Timeline</title><g class="cls-2"><g class="cls-3"><rect class="cls-4" x="137.43" y="72.74" width="24.61" height="24.61"/></g></g><g class="cls-5"><g class="cls-3"><rect class="cls-4" x="54.02" y="72.74" width="24.61" height="24.61"/></g></g><g class="cls-6"><g class="cls-3"><rect class="cls-4" x="216.74" y="72.74" width="24.61" height="24.61"/></g></g><g class="cls-7"><g class="cls-3"><rect class="cls-8" x="157.94" y="78.89" width="62.9" height="12.31"/></g></g><g class="cls-9"><g class="cls-3"><rect class="cls-8" x="74.53" y="78.89" width="62.9" height="12.31"/></g></g><g class="cls-10"><g class="cls-3"><rect class="cls-4" x="296.06" y="72.74" width="24.61" height="24.61"/></g></g><g class="cls-11"><g class="cls-3"><rect class="cls-8" x="237.26" y="78.89" width="62.9" height="12.31"/></g></g><g class="cls-12"><g class="cls-3"><rect class="cls-4" x="375.37" y="72.74" width="24.61" height="24.61"/></g></g><g class="cls-13"><g class="cls-3"><rect class="cls-8" x="316.57" y="78.89" width="62.9" height="12.31"/></g></g><g class="cls-14"><g class="cls-3"><rect class="cls-4" x="454.68" y="72.74" width="24.61" height="24.61"/></g></g><g class="cls-15"><g class="cls-3"><rect class="cls-8" x="395.88" y="78.89" width="62.9" height="12.31"/></g></g><g class="cls-16"><g class="cls-3"><rect class="cls-4" x="534" y="72.74" width="24.61" height="24.61"/></g></g><g class="cls-17"><g class="cls-3"><rect class="cls-8" x="475.2" y="78.89" width="62.9" height="12.31"/></g></g><g class="cls-18"><g class="cls-3"><rect class="cls-4" x="613.31" y="72.74" width="24.61" height="24.61"/></g></g><g class="cls-19"><g class="cls-3"><rect class="cls-4" x="696.73" y="72.74" width="24.61" height="24.61"/></g></g><g class="cls-20"><g class="cls-3"><rect class="cls-8" x="554.51" y="78.89" width="62.9" height="12.31"/></g></g><g class="cls-21"><g class="cls-3"><rect class="cls-8" x="637.92" y="78.89" width="62.9" height="12.31"/></g></g><g class="cls-3"><line class="cls-22" x1="66.49" y1="36.16" x2="66.49" y2="71.03"/><line class="cls-22" x1="228.54" y1="37.53" x2="228.54" y2="72.4"/><line class="cls-22" x1="387.16" y1="37.53" x2="387.16" y2="72.4"/><line class="cls-22" x1="545.79" y1="42.31" x2="545.79" y2="72.4"/><line class="cls-22" x1="307.85" y1="100.43" x2="307.85" y2="135.3"/><line class="cls-22" x1="149.91" y1="100.43" x2="149.91" y2="135.3"/><line class="cls-22" x1="465.79" y1="100.43" x2="465.79" y2="135.3"/><line class="cls-22" x1="625.79" y1="100.43" x2="625.79" y2="135.3"/><text class="cls-23" transform="translate(0 26.93)">N<tspan class="cls-24" x="7.52" y="0">O</tspan><tspan x="15.14" y="0">V</tspan></text><text class="cls-25" transform="translate(22.11 26.93)">2016</text><text class="cls-26" transform="translate(44.58 26.93)"><tspan xml:space="preserve"> : </tspan></text><text class="cls-27" transform="translate(53.24 26.93)">the idea is born.</text><text class="cls-23" transform="translate(84.1 155.47)">MAR</text><text class="cls-25" transform="translate(107.11 155.47)">2017</text><text class="cls-26" transform="translate(129.21 155.47)"><tspan xml:space="preserve"> : </tspan></text><text class="cls-27" transform="translate(137.88 155.47)">First <tspan class="cls-28" x="22.2" y="0">w</tspan><tspan x="30.31" y="0">orking </tspan></text><text class="cls-27" transform="translate(84.1 167.1)">pro<tspan class="cls-29" x="15.95" y="0">t</tspan><tspan class="cls-30" x="19.61" y="0">otype </tspan><tspan class="cls-31" x="48.79" y="0">o</tspan><tspan x="54.69" y="0">f the Mortise.</tspan></text><text class="cls-23" transform="translate(164.78 15.31)">APR</text><text class="cls-25" transform="translate(185.59 15.31)">2017</text><text class="cls-26" transform="translate(207.69 15.31)"><tspan xml:space="preserve"> : </tspan></text><text class="cls-27" transform="translate(216.36 15.31)">Mar<tspan class="cls-32" x="17.9" y="0">k</tspan><tspan x="23.17" y="0">et research </tspan></text><text class="cls-27" transform="translate(164.78 26.93)">and n<tspan class="cls-28" x="27.2" y="0">e</tspan><tspan x="32.68" y="0">w </tspan><tspan class="cls-33" x="43.57" y="0">f</tspan><tspan x="46.59" y="0">eatures </tspan></text><text class="cls-23" transform="translate(250.25 155.47)"><tspan class="cls-34">O</tspan><tspan x="7.58" y="0">CT</tspan></text><text class="cls-25" transform="translate(270.3 155.47)">2017</text><text class="cls-26" transform="translate(292.4 155.47)"><tspan xml:space="preserve"> : </tspan></text><text class="cls-27" transform="translate(301.07 155.47)">Se<tspan class="cls-35" x="11.48" y="0">c</tspan><tspan x="16.62" y="0">ond </tspan></text><text class="cls-27" transform="translate(250.25 167.1)">gene<tspan class="cls-36" x="23.62" y="0">r</tspan><tspan x="26.95" y="0">ation </tspan><tspan class="cls-31" x="53.58" y="0">o</tspan><tspan class="cls-30" x="59.47" y="0">f </tspan><tspan class="cls-37" x="65.2" y="0">w</tspan><tspan x="73.3" y="0">orking </tspan></text><text class="cls-27" transform="translate(250.25 178.72)">pro<tspan class="cls-29" x="15.95" y="0">t</tspan><tspan class="cls-30" x="19.61" y="0">otypes.</tspan></text><text class="cls-23" transform="translate(326.14 15.31)">APR</text><text class="cls-25" transform="translate(346.95 15.31)">2018</text><text class="cls-26" transform="translate(369.51 15.31)"><tspan xml:space="preserve"> : </tspan></text><text class="cls-27" transform="translate(378.18 15.31)">Final pro<tspan class="cls-29" x="40.98" y="0">t</tspan><tspan x="44.64" y="0">otypes </tspan></text><text class="cls-27" transform="translate(326.14 26.93)">and optimi<tspan class="cls-34" x="52.15" y="0">z</tspan><tspan class="cls-30" x="57.06" y="0">ation </tspan><tspan class="cls-38" x="83.69" y="0">o</tspan><tspan class="cls-30" x="89.58" y="0">f the app.</tspan></text><text class="cls-23" transform="translate(411.61 155.47)">APR<tspan class="cls-39" x="20.81" y="0">-</tspan><tspan x="24.15" y="0">JUL</tspan></text><text class="cls-25" transform="translate(453.51 155.47)">2018</text><text class="cls-26" transform="translate(476.07 155.47)"><tspan xml:space="preserve"> : </tspan></text><text class="cls-27" transform="translate(484.73 155.47)">Product <tspan class="cls-29" x="40.3" y="0">t</tspan><tspan x="43.96" y="0">est, </tspan></text><text class="cls-27" transform="translate(411.61 167.1)">b<tspan class="cls-35" x="6.47" y="0">r</tspan><tspan class="cls-30" x="9.8" y="0">anding, </tspan><tspan class="cls-35" x="47.54" y="0">c</tspan><tspan x="52.68" y="0">ost </tspan><tspan class="cls-40" x="69.28" y="0">c</tspan><tspan class="cls-30" x="74.38" y="0">alculation.</tspan></text><text class="cls-23" transform="translate(564.08 155.47)">DEC</text><text class="cls-25" transform="translate(584.5 155.47)">2018</text><text class="cls-26" transform="translate(607.06 155.47)"><tspan xml:space="preserve"> : </tspan></text><text class="cls-27" transform="translate(615.73 155.47)">Mass production </text><text class="cls-27" transform="translate(564.08 167.1)">and shipping <tspan class="cls-41" x="64.64" y="0">o</tspan><tspan x="70.53" y="0">f Mortie.</tspan></text><text class="cls-23" transform="translate(648.18 10.52)"><tspan class="cls-42">J</tspan><tspan x="4.95" y="0">AN</tspan></text><text class="cls-25" transform="translate(668.01 10.52)">2019</text><text class="cls-26" transform="translate(690.48 10.52)"><tspan xml:space="preserve"> : </tspan></text><text class="cls-27" transform="translate(699.14 10.52)">Mass production </text><text class="cls-27" transform="translate(648.18 22.14)">and shipping <tspan class="cls-41" x="64.64" y="0">o</tspan><tspan x="70.53" y="0">f deadbolt </tspan></text><text class="cls-27" transform="translate(648.18 33.77)"><tspan class="cls-28">v</tspan><tspan x="4.61" y="0">ersion.</tspan></text><text class="cls-23" transform="translate(488.87 15.99)"><tspan class="cls-43">A</tspan><tspan x="7.19" y="0">UG</tspan></text><text class="cls-25" transform="translate(510.42 15.99)">2018</text><text class="cls-26" transform="translate(532.98 15.99)"><tspan xml:space="preserve"> : </tspan></text><text class="cls-27" transform="translate(541.64 15.99)">Kic<tspan class="cls-44" x="14.62" y="0">k</tspan><tspan x="20.05" y="0">star</tspan><tspan class="cls-29" x="37.21" y="0">t</tspan><tspan x="40.87" y="0">er </tspan></text><text class="cls-27" transform="translate(488.87 27.61)"><tspan class="cls-45">c</tspan><tspan x="5.1" y="0">ampaign starts.</tspan></text></g><g class="cls-46"><g class="cls-3"><rect class="cls-47" x="480.67" y="3" width="140.17" height="32.82"/></g></g></svg>