<svg id="_001-youtube" data-name="001-youtube" xmlns="http://www.w3.org/2000/svg" viewBox="0 0 56.071 40.117">
  <defs>
    <style>
      .cls-1 {
        fill: #fff;
      }
    </style>
  </defs>
  <path id="Tracé_33" data-name="Tracé 33" class="cls-1" d="M29.38,87.723h0c-6.376,0-13.318-.2-20.632-.6A8.723,8.723,0,0,1,.6,79.026,108.175,108.175,0,0,1,.6,56.3a8.773,8.773,0,0,1,8.139-8.1,313.006,313.006,0,0,1,38.593,0A8.684,8.684,0,0,1,55.475,56.3a108.427,108.427,0,0,1,0,22.727,8.7,8.7,0,0,1-8.133,8.1C41.8,87.522,35.756,87.723,29.38,87.723ZM27.888,49.759c-6.356,0-12.754.2-19.016.593A6.572,6.572,0,0,0,2.74,56.527a106.05,106.05,0,0,0,0,22.274,6.527,6.527,0,0,0,6.123,6.176c7.275.392,14.178.592,20.514.592s12.318-.2,17.81-.591a6.6,6.6,0,0,0,6.143-6.173,106.079,106.079,0,0,0,0-22.274A6.586,6.586,0,0,0,47.2,50.352C40.743,49.958,34.245,49.759,27.888,49.759ZM22.551,60.036V74.816l14.194-7.34Z" transform="translate(0 -47.606)"/>
</svg>
